<svg width="330" height="146" viewBox="0 0 330 146" fill="none" xmlns="http://www.w3.org/2000/svg">
<path d="M94.0916 63.9706C101.977 63.9706 109.947 63.0063 114.995 53.9868C117.491 49.5338 117.69 43.9746 117.349 40.5143C117.179 38.6707 116.924 37.1107 114.683 38.3871C111.081 40.4576 104.671 40.883 92.0212 40.883H32.5719C19.8936 40.883 13.5119 40.4576 9.90979 38.3871C7.6691 37.1107 7.44219 38.6707 7.24364 40.5143C6.90329 43.9746 7.10188 49.5338 9.59784 53.9868C14.6465 63.0063 22.6165 63.9706 30.5015 63.9706H94.0916Z" fill="white"/>
<path d="M116.244 119.59C117.464 118.825 118.144 119.165 118.371 120.441C118.513 121.264 118.655 122.767 118.655 123.788C118.712 141.742 105.126 145.146 93.6386 145.146C82.9173 145.146 79.6271 142.99 73.5858 142.792C65.7859 142.536 62.5525 145.146 51.7177 145.146C43.6342 145.146 37.1108 141.912 35.0403 134.51C33.1399 127.702 37.366 118.995 46.187 117.095C62.3823 113.606 78.7762 121.236 92.9011 122.455C103.169 123.363 112.046 122.228 116.244 119.59Z" fill="white"/>
<path d="M122.597 83.7675C120.753 81.1864 118.428 78.9457 110.911 78.9457H62.297H13.6826C6.16632 78.9457 3.84047 81.2148 1.99686 83.7675C0.124895 86.3769 -0.555817 91 0.49362 94.3752C2.59249 101.012 8.52045 105.267 16.9443 105.267C20.7166 105.267 25.9354 104.217 29.2823 102.487C30.3885 101.92 31.7215 102.005 32.8844 102.487C37.1956 104.246 41.989 105.267 47.0944 105.267C52.0012 105.267 56.5676 104.189 60.737 102.43C61.7581 102.005 62.8359 102.005 63.857 102.43C68.0264 104.189 72.6212 105.267 77.4997 105.267C82.605 105.267 87.3984 104.217 91.7096 102.487C92.8724 102.005 94.1772 101.92 95.3117 102.487C98.6586 104.217 103.877 105.267 107.65 105.267C116.073 105.267 122.001 101.012 124.1 94.3752C125.178 90.9717 124.469 86.3769 122.597 83.7675Z" fill="white"/>
<path d="M48.8249 26.049H77.2731C85.1581 26.049 93.1281 25.0847 98.1768 16.0652C100.673 11.6122 100.871 6.05298 100.531 2.59268C100.361 0.749072 100.106 -0.810902 97.8648 0.465441C94.2627 2.53595 87.8527 2.96141 75.2027 2.96141H48.8249H35.2389C29.6514 2.96141 27.3823 4.32282 25.5104 7.1875C23.837 9.74018 23.6101 13.5125 24.4043 16.4906C25.9642 22.3051 31.4099 26.0207 37.6782 26.0207L48.8249 26.049Z" fill="white"/>
<path d="M202.637 39.0677H206.892C207.317 39.0677 207.686 38.8124 207.828 38.4154L217.528 9.93873L223.541 27.5806H219.513C216.308 27.5806 214.692 27.4672 213.784 26.9566C213.217 26.6163 213.16 27.0134 213.103 27.4955C213.018 28.3748 213.103 29.7646 213.699 30.8991C214.777 32.9413 216.535 33.4234 218.549 33.4234H225.526L227.228 38.4437C227.37 38.8408 227.739 39.0961 228.164 39.0961H232.419C233.099 39.0961 233.553 38.4437 233.355 37.7914L221.47 2.84794C221.329 2.45086 220.96 2.19556 220.534 2.19556H214.521C214.096 2.19556 213.727 2.45086 213.585 2.84794L201.701 37.763C201.474 38.387 201.957 39.0677 202.637 39.0677Z" fill="white"/>
<path d="M253.861 39.9182C264.072 39.9182 270.681 33.3947 270.681 20.6029C270.681 7.81112 264.072 1.2876 253.861 1.2876C243.651 1.2876 237.042 7.81112 237.042 20.6029C237.07 33.4231 243.651 39.9182 253.861 39.9182ZM253.861 7.66931C256.414 7.66931 264.185 7.66924 264.185 20.6312C264.185 33.5932 256.414 33.5932 253.861 33.5932C251.309 33.5932 243.537 33.5932 243.537 20.6312C243.537 7.66924 251.337 7.66931 253.861 7.66931Z" fill="white"/>
<path d="M279.956 27.042C281.005 27.8078 282.196 28.4034 283.529 28.8005C284.862 29.1976 286.366 29.3961 287.982 29.3961C289.996 29.3961 291.755 29.0558 293.258 28.4035C294.761 27.7511 295.952 26.7867 296.803 25.5388C297.654 24.2908 298.08 22.7592 298.08 20.9723C298.08 19.8945 297.853 18.9301 297.427 18.0509C297.002 17.2 296.378 16.4342 295.612 15.7818C294.846 15.1295 293.882 14.5906 292.776 14.1368C291.67 13.683 290.422 13.3143 289.06 13.059C288.323 12.9172 287.67 12.7186 287.075 12.5201C286.479 12.3215 285.969 12.0946 285.543 11.811C285.118 11.5557 284.777 11.2437 284.579 10.875C284.352 10.5346 284.238 10.1092 284.238 9.68377C284.238 9.14487 284.409 8.66267 284.749 8.23722C285.089 7.81178 285.571 7.49982 286.167 7.30128C286.763 7.07437 287.472 6.98924 288.323 6.98924C289.089 6.98924 289.798 7.1027 290.535 7.35797C291.244 7.58488 291.925 7.95361 292.521 8.43579C292.889 8.71942 293.258 9.05973 293.598 9.45682C293.967 9.8539 294.591 9.85393 294.988 9.48521L297.2 7.32958C297.541 6.98922 297.626 6.45037 297.342 6.05329C296.832 5.37257 296.236 4.77691 295.584 4.23801C294.704 3.55729 293.655 3.01843 292.435 2.67807C291.244 2.33771 289.826 2.13916 288.209 2.13916C286.905 2.13916 285.657 2.33774 284.494 2.70646C283.331 3.07518 282.31 3.61401 281.402 4.32309C280.523 5.03217 279.814 5.85472 279.303 6.81906C278.793 7.78341 278.537 8.83289 278.537 9.96742C278.537 11.0736 278.708 12.0663 279.048 12.9455C279.388 13.8248 279.899 14.619 280.608 15.2997C281.317 15.9804 282.196 16.576 283.246 17.0298C284.295 17.4836 285.515 17.8808 286.933 18.2211C287.585 18.3346 288.181 18.448 288.748 18.6181C289.287 18.7883 289.798 18.9585 290.251 19.1854C290.705 19.4124 291.102 19.6393 291.414 19.8945C291.726 20.1498 291.982 20.4617 292.18 20.8021C292.35 21.1424 292.435 21.5112 292.435 21.9083C292.435 22.4472 292.265 22.9294 291.897 23.3264C291.556 23.7235 291.074 24.0355 290.45 24.2624C289.826 24.4893 289.145 24.6028 288.351 24.6028C286.933 24.6028 285.6 24.2908 284.38 23.6668C283.416 23.1846 282.423 22.3338 281.431 21.1425C281.033 20.6603 280.324 20.6319 279.927 21.0857L277.743 23.5817C277.431 23.9504 277.403 24.4894 277.715 24.8581C278.367 25.709 279.105 26.418 279.956 27.042Z" fill="white"/>
<path d="M276.722 39.0676H298.788C299.327 39.0676 299.781 38.6139 299.781 38.075V35.4655C299.781 34.9266 299.327 34.4728 298.788 34.4728H276.722C276.183 34.4728 275.729 34.9266 275.729 35.4655V38.075C275.729 38.6139 276.183 39.0676 276.722 39.0676Z" fill="white"/>
<path d="M194.044 2.16687H190.583C189.477 2.16687 188.428 2.76243 187.86 3.69842L177.99 20.0356L168.12 3.69842C167.552 2.73407 166.503 2.16687 165.397 2.16687H161.937C161.398 2.16687 160.944 2.62061 160.944 3.15951V38.0463C160.944 38.5852 161.398 39.039 161.937 39.039H166.219C166.758 39.039 167.212 38.5852 167.212 38.0463V13.5688L175.608 27.8071C175.778 28.1191 176.118 28.2893 176.459 28.2893H179.578C179.919 28.2893 180.259 28.1191 180.429 27.8071L188.825 13.5688V38.0463C188.825 38.5852 189.279 39.039 189.818 39.039H194.1C194.639 39.039 195.093 38.5852 195.093 38.0463V3.15951C195.036 2.62061 194.611 2.16687 194.044 2.16687Z" fill="white"/>
<path d="M241.466 56.0284C237.382 56.0284 233.95 57.1346 231.199 59.2051C230.802 59.5171 230.717 60.0843 231 60.5098C231.823 61.7578 232.504 63.1476 233.071 64.6509C233.269 65.1614 233.894 65.3032 234.291 64.9061C236.73 62.3818 239.963 62.3535 241.438 62.3535C243.991 62.3535 251.762 62.3534 251.762 75.3154C251.762 88.2773 243.991 88.2773 241.438 88.2773C239.963 88.2773 236.73 88.249 234.291 85.7247C233.922 85.3276 233.269 85.4694 233.071 85.9799C232.504 87.4832 231.823 88.873 231 90.1209C230.717 90.5464 230.774 91.1137 231.199 91.4257C233.922 93.4962 237.382 94.6024 241.466 94.6024C251.677 94.6024 258.286 88.0788 258.286 75.2871C258.286 62.552 251.706 56.0284 241.466 56.0284Z" fill="white"/>
<path d="M213.33 56.0284C203.119 56.0284 196.511 62.552 196.511 75.3437C196.511 88.1355 203.119 94.6591 213.33 94.6591C223.541 94.6591 230.149 88.1355 230.149 75.3437C230.121 62.552 223.541 56.0284 213.33 56.0284ZM213.33 88.3057C210.777 88.3057 203.006 88.3057 203.006 75.3437C203.006 62.3818 210.777 62.3818 213.33 62.3818C215.883 62.3818 223.654 62.3818 223.654 75.3437C223.654 88.3057 215.883 88.3057 213.33 88.3057Z" fill="white"/>
<path d="M190.356 75.0321H186.272H184.797H181.138H179.777C176.855 75.0321 175.38 74.947 174.529 74.4648C174.019 74.1528 173.962 74.5216 173.905 74.947C173.82 75.7412 173.735 77.4996 174.302 78.6058C175.068 80.1374 176.174 80.3643 177.763 80.3643H181.11H184.485C183.123 88.0507 177.564 88.2493 175.465 88.2493C172.913 88.2493 165.141 88.2493 165.141 75.2874C165.141 62.3254 173.026 62.3254 175.295 62.3254C176.997 62.3254 180.429 62.3821 182.84 66.1827C183.123 66.6365 183.719 66.75 184.201 66.4948L188.087 64.2541C188.569 63.9704 188.739 63.3465 188.456 62.8927C185.648 58.3262 181.393 56.0004 175.323 56.0004C165.396 56.0004 158.674 62.5239 158.674 75.3157C158.674 88.1075 165.283 94.631 175.494 94.631C185.364 94.631 192.029 88.1926 191.349 75.9681C191.32 75.4575 190.866 75.0321 190.356 75.0321Z" fill="white"/>
<path d="M291.301 62.0129C289.854 60.3679 288.124 59.0915 286.111 58.2123C284.097 57.333 281.856 56.9076 279.36 56.9076H266.568C266.029 56.9076 265.576 57.3614 265.576 57.9003V82.0941C265.576 82.633 266.029 83.0868 266.568 83.0868H270.993C271.532 83.0868 271.986 82.633 271.986 82.0941V63.2609H279.162C280.75 63.2609 282.196 63.5446 283.416 64.1119C284.664 64.6791 285.742 65.4733 286.621 66.5227C287.529 67.5722 288.209 68.8485 288.663 70.3517C289.117 71.8549 289.344 73.5284 289.344 75.372C289.344 77.244 289.117 78.9174 288.663 80.3923C288.209 81.8955 287.529 83.1719 286.649 84.2213C285.77 85.2708 284.692 86.0933 283.444 86.6322C282.196 87.1995 280.75 87.4831 279.162 87.4831H266.597C266.058 87.4831 265.604 87.9369 265.604 88.4758V92.8438C265.604 93.3827 266.058 93.8364 266.597 93.8364H279.389C281.884 93.8364 284.125 93.411 286.167 92.5317C288.181 91.6525 289.94 90.4045 291.358 88.7595C292.804 87.1144 293.91 85.1857 294.676 82.9166C295.442 80.6476 295.839 78.1516 295.839 75.4003C295.839 72.6491 295.442 70.1532 294.676 67.9125C293.854 65.6151 292.748 63.658 291.301 62.0129Z" fill="white"/>
<path d="M329.024 56.9076H323.663C323.266 56.9076 322.926 57.1345 322.784 57.4749L314.332 75.8826L305.029 57.4465C304.859 57.1061 304.518 56.9076 304.149 56.9076H298.817C298.08 56.9076 297.598 57.6734 297.938 58.3258L310.73 83.7108L306.73 92.3899C306.418 93.0423 306.901 93.7797 307.61 93.7797H312.97C313.367 93.7797 313.708 93.5528 313.85 93.2124L329.903 58.2974C330.215 57.645 329.733 56.9076 329.024 56.9076Z" fill="white"/>
<path d="M219.882 138.169C219.683 138.056 219.428 138.141 219.315 138.34C218.549 139.616 217.726 140.353 217.074 140.353C217.046 140.353 217.046 140.353 217.017 140.353C216.308 140.325 215.23 139.332 214.351 137.233C213.756 135.815 213.245 133.631 212.876 131.107H218.691C218.918 131.107 219.116 130.908 219.116 130.682V128.441C219.116 128.214 218.918 128.015 218.691 128.015H212.479C212.252 125.916 212.11 123.676 212.082 121.492C213.954 121.265 215.798 121.01 217.358 120.811C219.343 120.556 219.145 118.599 219.088 118.117C219.003 117.379 218.833 116.812 218.492 117.096C218.18 117.379 216.734 117.776 214.351 118.088C212.224 118.372 202.268 119.648 200.226 119.932C200.028 119.96 199.858 120.13 199.858 120.357V140.126L198.61 140.268C198.383 140.297 198.213 140.495 198.241 140.75L198.496 142.991C198.525 143.218 198.723 143.388 198.978 143.36L208.111 142.339C208.338 142.31 208.508 142.112 208.48 141.857L208.225 139.616C208.196 139.389 207.998 139.219 207.743 139.247L203.346 139.729V131.135H209.359C209.813 134.199 210.437 136.836 211.146 138.595C212.479 141.8 214.55 143.729 216.819 143.842C216.904 143.842 216.989 143.842 217.074 143.842C218.521 143.842 220.506 143.133 222.321 140.098C222.435 139.9 222.378 139.616 222.151 139.502L219.882 138.169ZM203.318 127.987V122.57C204.311 122.456 206.296 122.201 208.594 121.889C208.65 123.959 208.764 126.002 208.962 127.987H203.318Z" fill="white"/>
<path d="M292.918 140.211H288.635L289.429 136.184C289.486 135.928 289.287 135.673 289.004 135.673H286.536C286.337 135.673 286.167 135.815 286.11 136.013L285.288 140.211H278.226L277.403 136.013C277.375 135.815 277.176 135.673 276.978 135.673H274.51C274.255 135.673 274.056 135.928 274.085 136.184L274.879 140.211H270.596C270.369 140.211 270.17 140.41 270.17 140.637V142.877C270.17 143.104 270.369 143.303 270.596 143.303H292.889C293.116 143.303 293.315 143.104 293.315 142.877V140.637C293.343 140.381 293.173 140.211 292.918 140.211Z" fill="white"/>
<path d="M281.771 121.491C279.502 121.491 272.553 121.492 272.553 128.043C272.553 134.595 279.502 134.595 281.771 134.595C284.04 134.595 290.989 134.595 290.989 128.043C291.017 121.492 284.068 121.491 281.771 121.491ZM281.771 131.362C275.786 131.362 275.786 129.291 275.786 128.043C275.786 126.795 275.786 124.725 281.771 124.725C287.755 124.725 287.755 126.795 287.755 128.043C287.755 129.291 287.755 131.362 281.771 131.362Z" fill="white"/>
<path d="M272.383 120.017H289.543C291.528 120.017 291.613 118.06 291.613 117.549C291.613 116.812 291.5 116.216 291.159 116.471C290.819 116.726 289.316 116.925 286.933 116.925H272.383C272.156 116.925 271.958 117.124 271.958 117.35V119.591C271.958 119.818 272.156 120.017 272.383 120.017Z" fill="white"/>
<path d="M164.149 123.363L177.366 120.329C179.323 119.875 178.926 117.946 178.841 117.464C178.671 116.755 178.444 116.188 178.16 116.5C177.877 116.812 176.487 117.35 174.133 117.889L163.468 120.357C163.241 120.414 163.099 120.641 163.156 120.867L163.667 123.051C163.695 123.278 163.922 123.42 164.149 123.363Z" fill="white"/>
<path d="M185.308 137.744L182.727 137.205C182.5 137.148 182.302 137.29 182.245 137.517C181.962 138.339 181.394 138.992 180.515 139.502C179.04 140.353 176.913 140.608 175.325 140.098C173.765 139.587 172.318 138.68 172.318 135.616C172.318 135.446 172.318 135.219 172.318 135.049L183.975 133.546C184.202 133.517 184.372 133.291 184.344 133.064L184.06 130.823C184.032 130.596 183.805 130.426 183.578 130.454L172.432 131.872C172.488 130.88 172.573 129.887 172.658 128.923L182.047 127.731C182.274 127.703 182.444 127.476 182.415 127.249L182.132 125.009C182.103 124.782 181.876 124.612 181.65 124.64L172.942 125.746C172.999 125.065 173.056 124.498 173.112 124.129C173.141 123.902 172.97 123.704 172.744 123.676L170.106 123.392C169.879 123.364 169.652 123.534 169.652 123.761C169.595 124.243 169.51 125.122 169.425 126.2L162.079 127.136C161.852 127.164 161.682 127.391 161.71 127.618L161.994 129.859C162.022 130.086 162.249 130.256 162.476 130.227L169.17 129.376C169.085 130.341 169.028 131.362 168.971 132.326L161.342 133.291C161.115 133.319 160.944 133.546 160.973 133.773L161.256 136.014C161.285 136.24 161.512 136.411 161.739 136.382L168.858 135.475C168.858 135.503 168.858 135.56 168.858 135.588C168.858 139.587 170.673 142.225 174.275 143.388C175.183 143.672 176.175 143.842 177.168 143.842C178.955 143.842 180.77 143.388 182.274 142.509C184.004 141.516 185.167 140.041 185.677 138.254C185.705 138.056 185.535 137.8 185.308 137.744Z" fill="white"/>
<path d="M259.762 127.703C259.393 127.958 257.918 128.157 255.536 128.157C255.167 128.157 254.486 128.157 253.607 128.157C253.352 127.42 253.011 126.739 252.671 126.087L256.699 121.151C256.784 121.066 256.812 120.924 256.784 120.811L256.33 118.258C256.301 118.06 256.131 117.918 255.904 117.918H245.013C244.786 117.918 244.587 118.116 244.587 118.343V120.584C244.587 120.811 244.786 121.01 245.013 121.01H252.756L248.615 126.001C249.097 126.54 249.551 127.278 249.92 128.157H244.049C243.822 128.157 243.623 128.356 243.623 128.582V130.823C243.623 131.05 243.822 131.249 244.049 131.249H250.827C251.111 132.922 251.139 134.681 250.657 136.099C249.976 138.169 248.416 139.587 246.034 140.155C245.807 140.211 245.665 140.41 245.694 140.637L246.176 143.246C246.233 143.473 246.459 143.643 246.686 143.587C251.281 142.594 253.182 139.531 253.976 137.205C254.6 135.305 254.685 133.234 254.401 131.249C255.848 131.249 257.152 131.249 258.202 131.249C260.187 131.249 260.272 129.292 260.272 128.781C260.216 128.044 260.13 127.448 259.762 127.703Z" fill="white"/>
<path d="M241.296 135.871C242.459 132.978 242.686 129.178 242.686 123.278H238.034L238.573 118.088C238.602 117.861 238.431 117.634 238.205 117.634L236.134 117.407C235.907 117.379 235.68 117.549 235.68 117.776L235.113 123.278H233.099C232.872 123.278 232.674 123.477 232.674 123.704V125.746C232.674 125.973 232.872 126.171 233.099 126.171H234.801L233.865 135.106L237.269 137.091C236.304 138.197 235 139.133 233.184 140.211C232.986 140.324 232.901 140.58 233.014 140.778L234.035 142.508C234.149 142.707 234.432 142.792 234.631 142.65C236.928 141.289 238.545 139.984 239.736 138.509L241.977 139.814C242.175 139.927 242.431 139.871 242.544 139.672L243.679 137.715C243.792 137.516 243.735 137.261 243.537 137.148L241.296 135.871ZM238.8 134.425L236.985 133.375L237.751 126.171H239.793C239.708 129.972 239.481 132.525 238.8 134.425Z" fill="white"/>
</svg>
