<svg width="191" height="32" viewBox="0 0 191 32" fill="none" xmlns="http://www.w3.org/2000/svg">
<path d="M69.5368 7.62153C69.4715 7.43363 69.2999 7.31108 69.0957 7.31108H66.2608C66.0647 7.31108 65.885 7.43363 65.8196 7.62153L60.2152 24.0917C60.109 24.394 60.3377 24.7044 60.6563 24.7044H62.6661C62.8622 24.7044 63.0419 24.5819 63.1073 24.394L67.6823 10.963L70.5172 19.2797H68.6137C67.1023 19.2797 66.3425 19.2307 65.9095 18.9856C65.6399 18.8304 65.6154 19.0183 65.5909 19.2389C65.55 19.6474 65.5909 20.3009 65.8686 20.8483C66.3752 21.8123 67.2085 22.0411 68.148 22.0411H71.4404L72.2492 24.4021C72.3145 24.5901 72.4861 24.7126 72.6903 24.7126H74.7001C75.0187 24.7126 75.2393 24.4022 75.1413 24.0999L69.5368 7.62153Z" fill="black"/>
<path d="M84.8224 6.90259C80.0023 6.90259 76.8978 9.9744 76.8978 16.0037C76.8978 22.0329 80.0104 25.1047 84.8224 25.1047C89.6425 25.1047 92.747 22.0329 92.747 16.0037C92.747 9.9744 89.6425 6.90259 84.8224 6.90259ZM84.8224 22.1146C83.6214 22.1146 79.9614 22.1146 79.9614 16.0037C79.9614 9.89271 83.6214 9.89271 84.8224 9.89271C86.0233 9.89271 89.6834 9.89271 89.6834 16.0037C89.6834 22.1146 86.0233 22.1146 84.8224 22.1146Z" fill="black"/>
<path d="M148.391 6.90259C146.471 6.90259 144.845 7.41728 143.555 8.39765C143.358 8.5447 143.334 8.8143 143.465 9.01855C143.849 9.61494 144.175 10.2685 144.445 10.9711C144.535 11.208 144.837 11.2816 145.017 11.0937C146.177 9.90088 147.697 9.89271 148.391 9.89271C149.592 9.89271 153.252 9.89271 153.252 16.0037C153.252 22.1146 149.592 22.1146 148.391 22.1146C147.697 22.1146 146.177 22.1065 145.017 20.9137C144.837 20.7258 144.535 20.7993 144.445 21.0362C144.175 21.747 143.849 22.4006 143.465 22.9888C143.334 23.193 143.367 23.4626 143.555 23.6097C144.837 24.5819 146.471 25.1047 148.391 25.1047C153.211 25.1047 156.316 22.0329 156.316 16.0037C156.324 9.9744 153.211 6.90259 148.391 6.90259Z" fill="black"/>
<path d="M135.115 6.90259C130.295 6.90259 127.191 9.9744 127.191 16.0037C127.191 22.0329 130.303 25.1047 135.115 25.1047C139.935 25.1047 143.04 22.0329 143.04 16.0037C143.04 9.9744 139.927 6.90259 135.115 6.90259ZM135.115 22.1146C133.914 22.1146 130.254 22.1146 130.254 16.0037C130.254 9.89271 133.914 9.89271 135.115 9.89271C136.316 9.89271 139.976 9.89271 139.976 16.0037C139.976 22.1146 136.316 22.1146 135.115 22.1146Z" fill="black"/>
<path d="M97.1179 19.0346C97.608 19.4023 98.1718 19.68 98.8008 19.868C99.4299 20.0559 100.132 20.1539 100.9 20.1539C101.848 20.1539 102.673 19.9987 103.384 19.68C104.095 19.3696 104.65 18.9121 105.051 18.3239C105.451 17.7357 105.655 17.0167 105.655 16.1752C105.655 15.6687 105.557 15.2112 105.353 14.8027C105.149 14.3942 104.863 14.0429 104.495 13.7407C104.127 13.4384 103.678 13.1851 103.155 12.9727C102.632 12.7603 102.052 12.5887 101.399 12.458C101.056 12.3845 100.745 12.3028 100.459 12.2129C100.173 12.1149 99.9364 12.0087 99.7322 11.8861C99.5279 11.7636 99.3809 11.6165 99.2747 11.4531C99.1685 11.2897 99.1113 11.1018 99.1113 10.8813C99.1113 10.6198 99.193 10.3911 99.3482 10.195C99.5116 9.99892 99.7322 9.85187 100.01 9.75383C100.296 9.6558 100.631 9.60678 101.023 9.60678C101.374 9.60678 101.726 9.66397 102.061 9.77834C102.396 9.89272 102.714 10.0561 103 10.2849C103.18 10.4237 103.351 10.579 103.515 10.7587C103.686 10.9466 103.989 10.9466 104.168 10.775L105.214 9.762C105.377 9.60678 105.41 9.34535 105.279 9.15744C105.042 8.83065 104.765 8.55288 104.446 8.30779C104.029 7.981 103.531 7.73591 102.967 7.57251C102.396 7.40912 101.734 7.32742 100.982 7.32742C100.369 7.32742 99.7812 7.41729 99.2338 7.59703C98.6864 7.77676 98.1963 8.03002 97.7796 8.35681C97.3629 8.69177 97.028 9.08392 96.7911 9.53325C96.5541 9.99075 96.4398 10.4809 96.4398 11.012C96.4398 11.5348 96.5215 12.0005 96.6767 12.4172C96.8401 12.8338 97.0852 13.2015 97.412 13.5282C97.7388 13.855 98.1554 14.1246 98.6538 14.3452C99.1521 14.5658 99.7322 14.7537 100.394 14.9008C100.704 14.9498 100.982 15.007 101.244 15.0887C101.505 15.1622 101.742 15.2521 101.954 15.3583C102.167 15.4563 102.346 15.5707 102.502 15.6932C102.657 15.8158 102.771 15.9628 102.853 16.118C102.935 16.2814 102.976 16.453 102.976 16.6409C102.976 16.9023 102.894 17.1229 102.73 17.3027C102.567 17.4906 102.338 17.6295 102.044 17.7357C101.758 17.8419 101.423 17.899 101.056 17.899C100.386 17.899 99.7567 17.752 99.1848 17.4661C98.7273 17.2373 98.2616 16.837 97.7959 16.2733C97.608 16.0445 97.2731 16.0282 97.077 16.2488L96.0395 17.4252C95.8924 17.5968 95.8761 17.8582 96.0231 18.0298C96.3662 18.4056 96.7257 18.7487 97.1179 19.0346Z" fill="black"/>
<path d="M105.998 22.5395H95.5901C95.3368 22.5395 95.1244 22.7437 95.1244 23.0051V24.2388C95.1244 24.492 95.3286 24.7044 95.5901 24.7044H105.998C106.252 24.7044 106.464 24.5002 106.464 24.2388V23.0051C106.464 22.7437 106.26 22.5395 105.998 22.5395Z" fill="black"/>
<path d="M56.6123 7.31108H54.9784C54.4555 7.31108 53.9654 7.58885 53.6958 8.03819L49.039 15.7422L44.3823 8.03819C44.1127 7.58885 43.6225 7.31108 43.0996 7.31108H41.4657C41.2124 7.31108 41 7.51532 41 7.77676V24.2224C41 24.4757 41.2042 24.6881 41.4657 24.6881H43.4836C43.7369 24.6881 43.9493 24.4838 43.9493 24.2224V12.6786L47.9116 19.4023C47.9933 19.5412 48.1485 19.631 48.3119 19.631H49.7743C49.9377 19.631 50.0929 19.5412 50.1746 19.4023L54.1369 12.6786V24.2224C54.1369 24.4757 54.3412 24.6881 54.6026 24.6881H56.6205C56.8738 24.6881 57.0862 24.4838 57.0862 24.2224V7.76859C57.078 7.51533 56.8738 7.31108 56.6123 7.31108Z" fill="black"/>
<path d="M124.282 15.8648H122.354H121.66H119.936H119.299C117.918 15.8648 117.215 15.8239 116.823 15.6033C116.578 15.4645 116.554 15.636 116.537 15.8321C116.496 16.2079 116.464 17.033 116.733 17.5559C117.101 18.2748 117.616 18.3892 118.359 18.3892H119.936H121.529C120.892 22.0166 118.269 22.1146 117.273 22.1146C116.072 22.1146 112.412 22.1146 112.412 16.0037C112.412 9.89271 116.137 9.89271 117.199 9.89271C118 9.89271 119.617 9.92539 120.753 11.7064C120.892 11.9188 121.17 11.976 121.39 11.8453L123.22 10.7914C123.441 10.6607 123.522 10.3666 123.392 10.146C122.068 7.98916 120.067 6.88625 117.199 6.88625C112.51 6.88625 109.348 9.95806 109.348 15.9873C109.348 22.0166 112.461 25.0884 117.273 25.0884C121.929 25.0884 125.075 22.0574 124.748 16.2814C124.74 16.0608 124.527 15.8648 124.282 15.8648Z" fill="black"/>
<path d="M171.879 9.72115C171.193 8.94503 170.376 8.34864 169.428 7.93198C168.48 7.51533 167.418 7.31108 166.25 7.31108H160.213C159.959 7.31108 159.747 7.51532 159.747 7.77676V19.1817C159.747 19.435 159.951 19.6474 160.213 19.6474H162.296C162.549 19.6474 162.762 19.4431 162.762 19.1817V10.293H166.136C166.887 10.293 167.565 10.4237 168.145 10.6933C168.734 10.9548 169.232 11.3388 169.657 11.8371C170.082 12.3355 170.4 12.9319 170.613 13.6426C170.825 14.3452 170.939 15.1377 170.939 16.0118C170.939 16.8942 170.833 17.6785 170.613 18.3811C170.4 19.0837 170.082 19.6882 169.665 20.1866C169.248 20.6849 168.742 21.0689 168.154 21.3303C167.557 21.5999 166.887 21.7307 166.128 21.7307H160.204C159.951 21.7307 159.739 21.9349 159.739 22.1963V24.2551C159.739 24.5084 159.943 24.7208 160.204 24.7208H166.242C167.41 24.7208 168.48 24.5165 169.436 24.0999C170.392 23.6832 171.209 23.095 171.887 22.327C172.565 21.5591 173.088 20.6359 173.448 19.5657C173.807 18.4954 173.995 17.319 173.995 16.0282C173.995 14.7374 173.815 13.5609 173.448 12.4989C173.088 11.4123 172.565 10.4973 171.879 9.72115Z" fill="black"/>
<path d="M189.665 7.31108H187.132C186.952 7.31108 186.789 7.41729 186.707 7.58068L182.712 16.2651L178.333 7.56434C178.251 7.40912 178.096 7.31108 177.916 7.31108H175.4C175.057 7.31108 174.828 7.67055 174.984 7.981L181.013 19.9497L179.126 24.0509C178.987 24.3613 179.207 24.7044 179.55 24.7044H182.083C182.263 24.7044 182.426 24.5982 182.508 24.4348L190.081 7.96466C190.228 7.65421 190.008 7.31108 189.665 7.31108Z" fill="black"/>
<path d="M20.7336 14.1083C22.4738 14.1083 24.2303 13.8959 25.3414 11.9106C25.8887 10.9303 25.9378 9.70481 25.8642 8.93685C25.8234 8.52837 25.7744 8.18524 25.276 8.47118C24.4835 8.92868 23.0702 9.01855 20.2761 9.01855H7.1719C4.37785 9.01855 2.96449 8.92868 2.17202 8.47118C1.68184 8.18524 1.62465 8.52837 1.5838 8.93685C1.51028 9.69664 1.55112 10.9221 2.10667 11.9106C3.21775 13.8959 4.98241 14.1083 6.71439 14.1083H20.7336Z" fill="#82E600"/>
<path d="M25.6191 26.3711C25.8887 26.1995 26.0439 26.2812 26.0848 26.559C26.1175 26.7387 26.142 27.0736 26.142 27.2942C26.1583 31.2484 23.16 32 20.6274 32C18.2664 32 17.5393 31.5262 16.2076 31.4771C14.492 31.4199 13.773 32 11.3875 32C9.60646 32 8.16859 31.2892 7.71108 29.6553C7.29443 28.1602 8.22577 26.2403 10.1702 25.8155C13.7403 25.0476 17.3595 26.7305 20.464 26.992C22.7352 27.1962 24.6878 26.9511 25.6191 26.3711Z" fill="#82E600"/>
<path d="M27.0162 18.4709C26.6077 17.9072 26.1012 17.4089 24.4427 17.4089H13.724H3.01351C1.35505 17.4089 0.848527 17.9072 0.440041 18.4709C0.0233849 19.051 -0.123668 20.064 0.113254 20.8075C0.570759 22.2698 1.88608 23.2094 3.74061 23.2094C4.57392 23.2094 5.72586 22.9806 6.46113 22.5966C6.70622 22.4659 6.99216 22.4904 7.25359 22.5966C8.20945 22.9806 9.26335 23.2094 10.3826 23.2094C11.461 23.2094 12.4741 22.9724 13.3891 22.5885C13.6096 22.4986 13.8547 22.4986 14.0753 22.5885C14.9903 22.9724 16.0034 23.2094 17.0818 23.2094C18.2092 23.2094 19.2631 22.9806 20.2108 22.5966C20.464 22.4904 20.7582 22.4741 21.0032 22.5966C21.7385 22.9806 22.8905 23.2094 23.7238 23.2094C25.5783 23.2094 26.8936 22.2698 27.3511 20.8075C27.5799 20.064 27.4328 19.0428 27.0162 18.4709Z" fill="#82E600"/>
<path d="M10.7503 5.74249H17.0246C18.7648 5.74249 20.5213 5.53008 21.6323 3.54484C22.1797 2.56447 22.2287 1.33901 22.1552 0.571055C22.1144 0.162569 22.0653 -0.18056 21.567 0.105381C20.7745 0.562886 19.3612 0.652754 16.5671 0.652754H10.7503H7.76015C6.52652 0.652754 6.02816 0.955034 5.61151 1.5841C5.2357 2.14781 5.19485 2.98112 5.36642 3.6347C5.70955 4.91735 6.91049 5.73432 8.29118 5.73432L10.7503 5.74249Z" fill="#82E600"/>
</svg>
